<svg t="1737883886546" class="icon" viewBox="0 0 1024 1024" version="1.1" xmlns="http://www.w3.org/2000/svg" p-id="24110" width="200" height="200"><path d="M512 512m-512 0a512 512 0 1 0 1024 0 512 512 0 1 0-1024 0Z" fill="#EFEFEF" p-id="24111"></path><path d="M444.842667 213.845333l-8.405334 0.384a74.154667 74.154667 0 0 0-16.512 2.133334c-16.256 4.224-25.514667 15.104-28.032 27.818666l-0.682666 5.034667c-0.213333 3.242667 0 6.357333 0.554666 9.386667l0.512 2.090666-2.346666 2.005334c-18.218667 15.488-35.072 38.698667-36.522667 68.352l-1.28 8.405333a304.469333 304.469333 0 0 0 1.066667 71.722667l0.682666 4.181333-1.877333 2.218667a40.576 40.576 0 0 0-8.576 26.453333c0.938667 19.029333 7.082667 42.965333 22.954667 65.28l3.498666 4.650667c2.432 3.072 5.248 6.357333 9.557334 11.093333l3.498666 3.925333c27.008 29.738667 37.248 46.805333 39.936 76.501334l0.64 8.618666 0.213334 7.424 0.512-0.298666c-5.461333 3.285333-15.402667 7.125333-30.805334 11.093333a358.144 358.144 0 0 1-19.328 4.352l-9.984 1.834667a370.901333 370.901333 0 0 1-13.866666 2.176c-31.146667 5.248-57.514667 14.592-78.762667 27.989333a128.64 128.64 0 0 0-42.410667 42.496c-12.629333 21.162667-16.469333 41.685333-15.616 57.642667l-0.042666 12.757333c0 16.213333 13.312 29.098667 29.44 29.098667h538.197333c16.170667 0 29.44-12.928 29.44-29.098667V768c1.024-14.848-2.602667-35.2-15.146667-56.192a128.426667 128.426667 0 0 0-42.325333-42.453333c-21.248-13.44-47.786667-22.997333-79.232-28.629334l-9.728-1.493333-4.266667-0.725333a389.162667 389.162667 0 0 1-29.098666-6.144l-6.058667-1.621334a111.957333 111.957333 0 0 1-24.448-9.216v-1.365333c0-3.2 0.256-8.064 0.853333-14.677333 2.474667-27.392 11.434667-44.074667 34.005334-69.845334l14.933333-16.768a124.288 124.288 0 0 0 30.506667-74.666666c0-6.101333-0.64-10.88-2.133334-15.488l-1.450666-3.84a43.477333 43.477333 0 0 0-6.485334-10.368l1.28-9.728a258.56 258.56 0 0 0 1.109334-13.824 289.28 289.28 0 0 0-1.109334-52.778667l-1.493333-9.813333a100.992 100.992 0 0 0-2.901333-13.781334 113.578667 113.578667 0 0 0-23.210667-44.928c-22.784-24.789333-73.6-49.152-160.682667-55.637333a310.741333 310.741333 0 0 0-38.570666-0.170667z" fill="#4A4A4A" p-id="24112"></path></svg>
